<svg id="default-img.svg" xmlns="http://www.w3.org/2000/svg" width="70" height="80" viewBox="0 0 70 80">
  <g id="Group_15588" data-name="Group 15588" transform="translate(1.414)">
    <path id="Path_62018" data-name="Path 62018" d="M1008.516,559.861h-.006a2.255,2.255,0,0,0-3.9-1.6l0,0-6.364,7.648,2.284,7.927,7.182-4.06Z" transform="translate(-959.91 -557.547)" fill="#fff"/>
    <path id="Path_62019" data-name="Path 62019" d="M1029.649,584.709l0,0a2.255,2.255,0,0,0-1.633-3.89v-.006l-9.908.908-3.991,7.22,7.949,2.207Z" transform="translate(-963.322 -562.705)" fill="#fff"/>
    <path id="Path_62020" data-name="Path 62020" d="M1028.206,616.784v-.005a2.255,2.255,0,0,0,1.6-3.905l0,0-7.647-6.364-7.928,2.283,4.06,7.182Z" transform="translate(-963.348 -568.402)" fill="#fff"/>
    <path id="Path_62021" data-name="Path 62021" d="M1005.287,637.917l0,0a2.255,2.255,0,0,0,3.889-1.633h.006l-.908-9.907-7.22-3.991-1.387,8.916Z" transform="translate(-960.225 -571.922)" fill="#fff"/>
    <path id="Path_62022" data-name="Path 62022" d="M976.747,637.917l0,0a2.255,2.255,0,0,1-3.89-1.633h-.005l.907-9.907,7.22-3.991,1.388,8.916Z" transform="translate(-954.398 -571.922)" fill="#fff"/>
    <path id="Path_62023" data-name="Path 62023" d="M950.165,613.322l0,0a2.255,2.255,0,0,0,1.633,3.89v.006l9.907-.908,3.991-7.22-7.949-2.208Z" transform="translate(-949.319 -568.486)" fill="#fff"/>
    <path id="Path_62024" data-name="Path 62024" d="M951.592,581.263v.006a2.255,2.255,0,0,0-1.6,3.9l0,0,7.647,6.363,7.927-2.283-4.059-7.181Z" transform="translate(-949.278 -562.805)" fill="#fff"/>
    <path id="Path_62025" data-name="Path 62025" d="M976.44,558.433l0,0a2.255,2.255,0,0,0-3.889,1.633h-.006l.908,9.907,7.22,3.991,2.207-7.948Z" transform="translate(-954.33 -557.588)" fill="#fff"/>
  </g>
  <path id="Path_62026" data-name="Path 62026" d="M1014.407,573.371a.563.563,0,0,0-.713-.064l-13.774,8.081L997.6,585.44c.249.118.5.229.74.366l3.1-2.1a.85.85,0,0,1,1.127.066l1.439,1.44a.85.85,0,0,1,.067,1.127l-2.1,3.1c.136.236.247.488.363.735l4.05-2.315,0,0,8.079-13.775A.563.563,0,0,0,1014.407,573.371Z" transform="translate(-958.333 -561.02)" fill="#fff"/>
  <path id="Path_62027" data-name="Path 62027" d="M947.511,641.508a.57.57,0,0,1,.612-.343l30.2,10.437.973,6.254-9.606-4.59-22.028-11.095A.554.554,0,0,1,947.511,641.508Z" transform="translate(-947.46 -577.857)" fill="#fff"/>
  <path id="Path_62028" data-name="Path 62028" d="M1027.856,641.508a.57.57,0,0,0-.612-.343l-30.2,10.437-.973,6.254,9.606-4.59,22.028-11.095A.554.554,0,0,0,1027.856,641.508Z" transform="translate(-957.907 -577.857)" fill="#fff"/>
  <path id="Path_62029" data-name="Path 62029" d="M1024.094,598.539l-15.454-4.025-4.5,1.228c.093.258.194.514.266.782l3.677.7a.85.85,0,0,1,.75.844v2.035a.85.85,0,0,1-.75.844l-3.677.7c-.072.267-.172.521-.265.778l4.5,1.227v.005l15.454-4.028a.558.558,0,0,0,0-1.1Z" transform="translate(-959.696 -566.445)" fill="#fff"/>
  <path id="Path_62030" data-name="Path 62030" d="M1014.474,621.868l-8.081-13.773-4.052-2.316c-.118.25-.229.5-.366.74l2.1,3.1a.851.851,0,0,1-.067,1.128l-1.439,1.439a.85.85,0,0,1-1.127.066l-3.1-2.1c-.237.136-.488.247-.735.364l2.314,4.05,0,0,13.775,8.079a.558.558,0,0,0,.778-.777Z" transform="translate(-958.335 -569.267)" fill="#fff"/>
  <path id="Path_62031" data-name="Path 62031" d="M993.481,612.579l-.7,3.677a.85.85,0,0,1-.844.75H989.9a.85.85,0,0,1-.844-.75l-.7-3.677c-.266-.072-.52-.172-.777-.265l-1.227,4.5h-.005L990.367,651a.559.559,0,0,0,1.1,0l4.025-34.187-1.228-4.5C994.005,612.405,993.749,612.507,993.481,612.579Z" transform="translate(-955.915 -571.461)" fill="#fff"/>
  <path id="Path_62032" data-name="Path 62032" d="M981.26,610.15l-3.1,2.1a.85.85,0,0,1-1.127-.066l-1.439-1.439a.85.85,0,0,1-.066-1.128l2.1-3.1c-.136-.236-.247-.487-.364-.735l-4.05,2.315,0,0-8.079,13.775a.558.558,0,0,0,.778.777l13.773-8.081L982,610.515C981.751,610.4,981.5,610.286,981.26,610.15Z" transform="translate(-951.272 -569.268)" fill="#fff"/>
  <path id="Path_62033" data-name="Path 62033" d="M974.218,601.655l-3.677-.7a.85.85,0,0,1-.75-.844v-2.035a.85.85,0,0,1,.75-.844l3.677-.7c.072-.267.172-.52.265-.778l-4.5-1.227v-.005l-15.453,4.028a.558.558,0,0,0,0,1.1l15.453,4.025,4.5-1.227C974.391,602.179,974.29,601.924,974.218,601.655Z" transform="translate(-948.926 -566.445)" fill="#fff"/>
  <path id="Path_62034" data-name="Path 62034" d="M977.266,590.175c.117-.249.228-.5.366-.74l-2.1-3.1a.849.849,0,0,1,.066-1.127l1.439-1.44a.851.851,0,0,1,1.127-.066l3.1,2.1c.237-.136.488-.247.736-.363l-2.315-4.05,0,0-13.775-8.079a.558.558,0,0,0-.777.777l8.08,13.774Z" transform="translate(-951.271 -561.02)" fill="#fff"/>
  <path id="Path_62035" data-name="Path 62035" d="M988.35,582.393l.7-3.677a.85.85,0,0,1,.844-.75h2.035a.85.85,0,0,1,.844.75l.7,3.677c.266.072.52.172.778.265l1.227-4.5h.006L991.464,562.7a.558.558,0,0,0-1.1,0l-4.025,15.453,1.227,4.5C987.827,582.566,988.082,582.464,988.35,582.393Z" transform="translate(-955.915 -558.588)" fill="#fff"/>
</svg>
